<?xml version="1.0" standalone="no"?>
<!DOCTYPE svg PUBLIC "-//W3C//DTD SVG 20010904//EN"
 "http://www.w3.org/TR/2001/REC-SVG-20010904/DTD/svg10.dtd">
<svg version="1.0" xmlns="http://www.w3.org/2000/svg"
 width="500.000000pt" height="500.000000pt" viewBox="0 0 500.000000 500.000000"
 preserveAspectRatio="xMidYMid meet">

<g transform="translate(0.000000,500.000000) scale(0.100000,-0.100000)"
fill="#000000" stroke="none">
<path d="M0 2500 l0 -2500 2500 0 2500 0 0 2500 0 2500 -2500 0 -2500 0 0
-2500z m2596 1542 c9 -5 10 -30 3 -87 -14 -135 -14 -132 29 -139 20 -3 70 -8
110 -12 65 -5 72 -8 72 -28 -1 -48 -7 -50 -161 -37 -212 17 -193 7 -185 104 3
45 9 110 13 145 l6 62 51 0 c28 0 56 -4 62 -8z m-279 -23 c107 -40 133 -173
48 -248 -70 -61 -230 -82 -296 -38 -60 40 -87 127 -56 186 40 79 211 135 304
100z m695 -58 c8 -7 -64 -266 -76 -279 -7 -7 -116 26 -116 35 0 3 18 68 41
143 l41 137 52 -15 c28 -8 54 -17 58 -21z m-1089 -114 c31 -50 66 -106 77
-123 l20 -32 -48 -31 c-27 -17 -51 -31 -55 -31 -3 0 -27 34 -53 75 -26 41 -49
75 -50 75 -1 0 0 -48 3 -107 l5 -108 -36 -22 c-20 -13 -41 -23 -48 -23 -7 0
-51 21 -97 45 -46 25 -85 44 -87 43 -1 -2 17 -35 42 -73 24 -39 44 -73 44 -78
0 -4 -19 -19 -42 -33 -24 -15 -59 -49 -78 -78 -29 -41 -42 -52 -67 -54 -28 -3
-41 -15 -87 -78 -49 -68 -53 -78 -43 -103 9 -25 6 -34 -22 -74 -18 -25 -42
-76 -52 -113 -10 -37 -20 -68 -21 -69 -2 -1 -31 -23 -65 -48 l-62 -47 16 -45
c11 -34 20 -45 35 -45 18 0 20 -4 14 -39 -3 -22 -10 -51 -15 -64 l-10 -25
-136 38 c-75 21 -138 40 -141 43 -6 5 15 98 25 109 3 4 33 0 65 -8 32 -8 60
-14 62 -12 2 2 -14 54 -36 114 l-38 110 19 70 c10 38 21 74 22 79 2 6 21 -42
42 -105 21 -63 40 -118 42 -123 4 -7 175 127 181 143 2 4 -24 76 -58 160 l-61
152 34 46 c25 35 40 47 58 46 13 -1 90 -4 171 -8 l148 -6 -80 125 -80 125 53
33 c28 18 57 36 63 40 7 4 59 -16 117 -43 58 -28 109 -50 112 -50 3 0 5 54 5
120 l0 120 62 40 c33 22 64 40 67 40 3 0 32 -42 64 -93z m1321 18 c194 -112
231 -165 182 -263 -59 -117 -130 -113 -364 23 -45 26 -82 49 -82 51 0 7 142
254 147 254 2 0 55 -29 117 -65z m379 -262 c140 -150 177 -208 177 -273 0 -32
-7 -48 -36 -80 -85 -94 -151 -75 -302 87 -53 57 -98 108 -100 112 -2 7 203
201 214 201 2 0 23 -21 47 -47z m-948 -48 c124 -22 192 -42 289 -86 313 -141
541 -408 633 -744 26 -93 28 -113 28 -295 0 -181 -2 -202 -27 -291 -93 -333
-325 -603 -638 -740 -426 -189 -914 -101 -1248 225 -138 133 -241 303 -295
486 -161 540 96 1111 608 1351 203 95 448 131 650 94z m1260 -365 l25 -49
-127 -70 c-70 -38 -131 -67 -135 -64 -5 2 -19 26 -33 53 l-25 49 127 70 c70
38 131 67 135 64 5 -2 19 -26 33 -53z m111 -260 c4 -31 -3 -46 -65 -134 -39
-55 -69 -101 -68 -102 2 -2 43 8 92 21 50 14 91 25 92 25 6 0 33 -113 28 -119
-4 -3 -69 -22 -145 -42 l-138 -37 -16 64 c-9 35 -16 69 -16 76 0 7 32 58 70
112 39 55 69 100 67 102 -2 2 -43 -8 -92 -21 -49 -14 -90 -23 -92 -21 -8 7
-32 110 -28 115 3 2 67 21 142 41 l138 37 13 -41 c7 -23 15 -57 18 -76z
m-2547 -1932 l13 -33 14 33 c8 17 21 32 29 32 8 0 22 -15 31 -32 l17 -33 14
33 c8 21 20 32 33 32 25 0 25 0 -1 -61 -28 -63 -58 -68 -79 -11 l-13 37 -12
-35 c-19 -56 -48 -52 -80 9 -31 61 -30 61 -2 61 16 0 26 -9 36 -32z m321 17
c0 -11 -12 -15 -42 -17 l-43 -1 38 -4 c47 -5 49 -23 2 -23 -19 0 -35 -4 -35
-10 0 -5 20 -10 45 -10 33 0 45 -4 45 -15 0 -12 -14 -15 -70 -15 l-70 0 0 55
0 55 65 0 c51 0 65 -3 65 -15z m170 0 c6 -8 9 -19 5 -25 -4 -6 -2 -17 4 -24
23 -27 -14 -46 -90 -46 l-69 0 0 55 0 55 69 0 c48 0 72 -4 81 -15z m221 -6
c14 -14 18 -27 14 -42 -11 -36 -35 -47 -102 -47 l-63 0 0 55 0 55 65 0 c52 0
69 -4 86 -21z m159 6 c0 -11 -12 -15 -42 -17 l-43 -1 38 -4 c44 -5 50 -23 8
-23 -17 0 -33 -4 -36 -10 -4 -6 12 -10 39 -10 34 0 46 -4 46 -15 0 -12 -14
-15 -70 -15 l-70 0 0 55 0 55 65 0 c51 0 65 -3 65 -15z m81 -20 c7 -19 16 -35
20 -35 4 0 13 16 20 35 10 27 19 35 37 35 13 0 22 -3 20 -7 -42 -89 -53 -104
-77 -101 -17 2 -32 18 -53 56 l-30 52 25 0 c20 0 28 -8 38 -35z m249 20 c0
-11 -12 -15 -42 -16 -34 -2 -37 -3 -13 -6 46 -7 55 -23 12 -23 -51 0 -47 -18
5 -22 23 -2 43 -9 46 -15 3 -10 -15 -13 -67 -13 l-71 0 0 55 0 55 65 0 c51 0
65 -3 65 -15z m70 -25 l0 -40 40 0 c29 0 40 -4 40 -15 0 -12 -14 -15 -65 -15
l-65 0 0 55 c0 52 1 55 25 55 23 0 25 -4 25 -40z m234 24 c21 -20 20 -53 -1
-76 -23 -26 -96 -25 -123 2 -24 24 -25 38 -4 68 12 18 25 22 64 22 31 0 54 -6
64 -16z m174 4 c32 -32 -2 -68 -64 -68 -15 0 -24 -6 -24 -15 0 -9 -9 -15 -25
-15 -24 0 -25 3 -25 55 l0 55 63 0 c36 0 68 -5 75 -12z m162 -3 c0 -11 -12
-15 -42 -17 l-43 -1 38 -4 c47 -5 49 -23 2 -23 -19 0 -35 -4 -35 -10 0 -5 20
-10 45 -10 33 0 45 -4 45 -15 0 -12 -14 -15 -70 -15 l-70 0 0 55 0 55 65 0
c51 0 65 -3 65 -15z m166 1 c16 -13 17 -18 6 -36 -9 -15 -10 -26 -2 -40 9 -17
8 -20 -14 -20 -13 0 -26 7 -30 15 -3 8 -17 15 -31 15 -16 0 -25 -6 -25 -15 0
-9 -9 -15 -25 -15 -24 0 -25 3 -25 55 l0 55 63 0 c39 0 71 -5 83 -14z"/>
<path d="M2153 3925 c-45 -32 -31 -118 22 -131 83 -21 151 70 95 126 -24 24
-86 27 -117 5z"/>
<path d="M1240 3298 c1 -7 9 -28 19 -47 l18 -34 28 37 c15 20 26 38 24 40 -2
2 -23 7 -46 11 -33 5 -43 4 -43 -7z"/>
<path d="M3161 3745 c-17 -30 -31 -59 -31 -65 0 -14 95 -60 124 -60 50 0 84
71 53 111 -16 20 -89 69 -103 69 -7 0 -26 -25 -43 -55z"/>
<path d="M3551 3462 l-55 -48 27 -36 c39 -51 88 -75 121 -60 32 14 51 52 42
85 -3 13 -23 43 -43 66 l-38 42 -54 -49z"/>
<path d="M2280 3525 c-30 -7 -75 -22 -99 -32 l-43 -19 91 -13 91 -13 49 36
c26 20 59 40 72 45 38 15 -95 12 -161 -4z"/>
<path d="M2485 3527 c-55 -18 -85 -35 -118 -65 l-27 -26 61 -23 c86 -32 111
-31 211 11 48 20 96 36 105 37 10 0 27 4 38 8 15 6 2 14 -60 34 -101 34 -159
40 -210 24z"/>
<path d="M2670 3538 c0 -9 140 -60 152 -56 7 3 -18 15 -57 28 -38 13 -76 25
-82 28 -7 2 -13 2 -13 0z"/>
<path d="M2850 3456 c0 -14 136 -97 154 -94 16 2 6 13 -50 51 -62 40 -104 58
-104 43z"/>
<path d="M2042 3415 c-28 -20 -52 -37 -52 -39 0 -2 26 3 58 10 31 8 101 17
155 20 54 4 100 10 102 14 8 12 -80 30 -147 30 -56 0 -69 -4 -116 -35z"/>
<path d="M2660 3426 c-126 -44 -126 -44 -14 -80 55 -18 119 -43 143 -55 l43
-23 32 30 c17 16 44 36 60 44 l29 15 -69 47 c-81 54 -120 58 -224 22z"/>
<path d="M2965 3433 c62 -57 159 -113 172 -99 4 4 -49 45 -97 73 -38 23 -92
41 -75 26z"/>
<path d="M1968 3411 c-43 -22 -121 -81 -115 -88 8 -7 82 32 130 69 52 41 45
49 -15 19z"/>
<path d="M2328 3413 c7 -3 16 -2 19 1 4 3 -2 6 -13 5 -11 0 -14 -3 -6 -6z"/>
<path d="M2110 3380 c-126 -22 -164 -37 -209 -87 -45 -50 -131 -175 -131 -191
0 -5 33 -12 73 -15 40 -3 102 -16 141 -31 98 -37 109 -35 171 32 43 45 56 66
61 102 6 38 32 119 59 183 6 15 1 17 -56 16 -35 -1 -84 -5 -109 -9z"/>
<path d="M2282 3354 c-23 -45 -52 -139 -52 -167 0 -15 11 -9 53 28 28 26 83
69 120 96 63 44 67 48 48 59 -12 6 -50 13 -85 17 l-64 6 -20 -39z"/>
<path d="M2534 3347 c42 -27 164 -123 203 -160 24 -23 44 -39 46 -36 1 2 9 22
16 44 8 22 16 45 18 51 7 19 -235 115 -286 113 -14 0 -13 -2 3 -12z"/>
<path d="M2409 3293 c-35 -25 -92 -71 -126 -101 -57 -49 -63 -58 -63 -93 l0
-39 73 7 c91 10 377 10 440 1 l47 -8 0 33 c0 28 -10 42 -71 97 -84 75 -193
150 -219 150 -10 0 -46 -21 -81 -47z"/>
<path d="M2925 3326 c-16 -7 -41 -25 -54 -39 l-23 -26 43 -22 c24 -12 76 -44
116 -70 79 -54 81 -54 117 -38 l25 12 -22 31 c-35 49 -148 166 -161 166 -6 -1
-24 -7 -41 -14z"/>
<path d="M3073 3267 c35 -41 71 -84 79 -96 12 -17 22 -21 42 -15 14 3 26 9 26
13 0 4 -36 44 -80 89 -59 60 -87 82 -106 82 -24 0 -21 -5 39 -73z"/>
<path d="M3160 3264 c30 -29 56 -54 57 -54 2 0 -3 13 -12 30 -19 37 -50 66
-78 74 -14 3 -3 -12 33 -50z"/>
<path d="M1844 3293 c-18 -9 -41 -33 -53 -54 -21 -37 -63 -149 -56 -149 2 0
15 20 30 45 14 25 48 74 75 110 52 69 53 73 4 48z"/>
<path d="M3220 3255 c0 -3 9 -23 20 -44 16 -32 23 -38 44 -34 14 3 24 9 21 13
-8 13 -85 72 -85 65z"/>
<path d="M1676 3168 c-45 -46 -92 -100 -104 -121 -22 -38 -19 -39 28 -7 14 10
45 24 69 33 42 14 46 18 66 78 13 35 26 72 30 82 14 32 -8 17 -89 -65z"/>
<path d="M2822 3225 c-7 -14 -15 -43 -18 -63 -5 -35 -3 -41 40 -80 55 -51 76
-52 158 -11 l62 31 -29 25 c-26 21 -190 123 -199 123 -1 0 -8 -11 -14 -25z"/>
<path d="M3267 3147 c4 -7 26 -39 48 -71 l40 -59 12 29 c18 43 16 68 -10 92
-26 25 -105 33 -90 9z"/>
<path d="M3191 3141 c-12 -8 -12 -12 -2 -25 8 -9 31 -49 53 -89 l39 -72 -5 57
c-12 114 -41 158 -85 129z"/>
<path d="M3122 3116 c-23 -12 -22 -13 52 -83 42 -39 76 -69 76 -66 0 8 -54
109 -72 136 -22 31 -24 31 -56 13z"/>
<path d="M2175 3089 c-29 -36 -27 -44 10 -35 20 5 25 13 25 36 0 17 -2 30 -4
30 -2 0 -16 -14 -31 -31z"/>
<path d="M2790 3088 c0 -19 6 -27 25 -30 14 -3 25 -2 25 2 0 3 -11 17 -25 30
l-25 23 0 -25z"/>
<path d="M3010 3061 l-54 -28 59 -17 c33 -9 94 -30 135 -47 41 -16 82 -32 90
-35 8 -3 -22 31 -68 75 -46 45 -89 81 -95 81 -7 -1 -37 -14 -67 -29z"/>
<path d="M3284 3070 c3 -14 8 -52 12 -84 l7 -58 18 23 c25 33 24 47 -12 99
-24 35 -30 39 -25 20z"/>
<path d="M3382 3044 c-12 -43 -11 -49 12 -89 19 -31 33 -44 57 -49 59 -12 61
-10 38 36 -18 36 -89 148 -93 148 -1 0 -7 -21 -14 -46z"/>
<path d="M1738 3048 c-15 -33 -36 -148 -26 -148 3 0 46 18 96 40 50 21 117 47
149 56 32 9 62 20 66 24 13 12 -124 52 -198 57 l-70 5 -17 -34z"/>
<path d="M1678 3059 c-42 -11 -92 -45 -131 -89 -39 -43 -70 -128 -82 -225 l-8
-60 59 60 c33 33 75 71 95 84 30 20 40 38 68 121 19 53 32 101 30 107 -2 6
-15 7 -31 2z"/>
<path d="M2295 3054 c-81 -12 -78 -9 -72 -74 l7 -59 107 -106 c59 -58 109
-105 111 -105 1 0 47 33 100 73 53 41 129 95 168 121 l71 47 -5 47 c-2 26 -7
49 -9 52 -6 6 -437 10 -478 4z"/>
<path d="M2790 3027 c0 -12 3 -32 6 -44 l6 -22 39 22 c21 12 39 25 39 28 0 12
-25 26 -57 32 -29 6 -33 4 -33 -16z"/>
<path d="M2141 3031 c-39 -11 -35 -26 19 -65 27 -20 51 -36 53 -36 1 0 0 25
-1 55 -4 59 -10 63 -71 46z"/>
<path d="M2917 3013 c-4 -6 11 -32 31 -60 20 -27 46 -63 57 -78 l21 -28 64 16
c36 9 89 19 118 23 28 3 52 10 52 13 0 9 -127 64 -208 90 -85 27 -129 35 -135
24z"/>
<path d="M2000 2995 c-101 -29 -271 -103 -284 -123 -8 -13 11 -174 30 -263 13
-60 21 -79 38 -87 21 -9 25 -5 51 57 40 94 128 253 191 342 65 94 63 100 -26
74z"/>
<path d="M2843 2969 l-42 -29 15 -48 c8 -26 17 -57 20 -69 3 -13 9 -23 13 -23
11 0 144 39 149 44 5 6 -99 156 -108 155 -3 0 -24 -13 -47 -30z"/>
<path d="M2049 2928 c-77 -106 -183 -299 -214 -388 l-12 -34 56 -42 56 -41
115 57 c63 31 146 70 183 86 57 24 68 32 63 49 -3 11 -18 65 -34 120 -17 55
-34 118 -38 140 -7 32 -19 46 -63 77 -30 21 -57 38 -61 38 -3 0 -27 -28 -51
-62z"/>
<path d="M3330 2938 c-20 -35 -21 -40 -6 -35 10 4 31 7 46 7 l29 0 -20 35
c-12 19 -22 35 -23 35 -1 0 -13 -19 -26 -42z"/>
<path d="M1682 2911 c-14 -38 -11 -49 7 -27 7 8 11 25 9 38 -3 20 -5 19 -16
-11z"/>
<path d="M2650 2842 c-192 -133 -204 -143 -188 -159 12 -11 42 -4 188 47 96
34 176 63 178 65 6 6 -35 129 -44 132 -5 1 -65 -37 -134 -85z"/>
<path d="M2246 2828 c20 -83 52 -190 63 -207 7 -11 20 -5 65 30 31 24 56 46
56 50 0 8 -182 189 -191 189 -4 0 -1 -28 7 -62z"/>
<path d="M3151 2865 c-63 -14 -115 -26 -117 -27 -4 -5 79 -148 86 -147 13 1
167 199 154 198 -5 0 -60 -11 -123 -24z"/>
<path d="M3386 2846 c33 -24 60 -42 62 -41 2 2 -6 21 -18 44 -19 38 -23 41
-61 41 l-41 0 58 -44z"/>
<path d="M3461 2828 c17 -35 33 -65 35 -67 4 -4 44 61 44 72 0 20 -51 57 -80
57 l-30 0 31 -62z"/>
<path d="M1671 2846 c-14 -17 -38 -128 -47 -218 l-6 -67 33 -4 34 -4 -32 -1
-33 -2 1 -92 c0 -97 11 -193 22 -204 3 -4 27 9 54 28 40 29 50 42 64 92 16 51
16 63 3 105 -11 40 -20 50 -46 59 -30 11 -30 11 -4 6 28 -5 29 -4 22 28 -21
103 -36 206 -36 244 0 45 -9 54 -29 30z"/>
<path d="M3270 2853 c0 -5 -34 -48 -74 -97 l-75 -89 35 -69 c19 -37 38 -68 42
-68 4 0 17 8 28 18 17 13 26 39 37 112 22 134 28 200 17 200 -6 0 -10 -3 -10
-7z"/>
<path d="M3386 2783 c24 -36 45 -71 48 -77 2 -7 13 -2 27 11 22 22 23 23 4 43
-20 23 -109 90 -118 90 -3 0 15 -30 39 -67z"/>
<path d="M3301 2810 c-1 -19 -8 -77 -16 -129 -9 -52 -14 -95 -12 -97 1 -2 22
9 45 24 39 25 41 29 36 62 -4 19 -17 67 -29 105 -20 62 -23 66 -24 35z"/>
<path d="M1545 2747 c-83 -84 -85 -87 -85 -134 0 -26 3 -65 6 -85 l6 -37 32
23 c17 13 44 28 61 33 32 10 42 33 44 98 1 22 8 71 16 109 8 38 13 72 10 74
-2 2 -43 -34 -90 -81z"/>
<path d="M2985 2825 c-5 -2 -36 -11 -67 -20 -43 -12 -58 -21 -58 -34 0 -19 90
-175 115 -201 13 -12 22 -8 70 40 30 30 55 59 55 64 0 19 -84 156 -94 155 -6
0 -15 -2 -21 -4z"/>
<path d="M3333 2818 c3 -7 13 -46 23 -85 18 -73 30 -86 54 -58 10 12 5 27 -29
85 -38 63 -61 91 -48 58z"/>
<path d="M3525 2766 c-19 -29 -21 -24 39 -91 11 -13 0 80 -13 102 -7 14 -11
12 -26 -11z"/>
<path d="M2760 2759 c-30 -10 -105 -37 -167 -60 l-112 -41 61 -91 c33 -51 80
-132 104 -181 24 -49 46 -91 49 -94 6 -6 96 71 201 171 l82 78 -46 67 c-24 37
-56 91 -69 120 -14 28 -30 52 -36 51 -7 0 -37 -9 -67 -20z"/>
<path d="M1433 2690 c0 -25 2 -35 4 -22 2 12 2 32 0 45 -2 12 -4 2 -4 -23z"/>
<path d="M3466 2701 c-18 -20 -18 -22 11 -88 17 -38 38 -95 48 -128 17 -58 18
-59 27 -32 8 21 4 48 -16 116 -14 49 -31 104 -38 121 l-13 32 -19 -21z"/>
<path d="M2395 2655 l-40 -35 52 21 c35 14 50 25 46 35 -7 20 -13 18 -58 -21z"/>
<path d="M3520 2688 c1 -2 11 -38 24 -82 15 -52 25 -73 29 -61 12 31 7 58 -18
102 -21 35 -37 54 -35 41z"/>
<path d="M3402 2652 c-22 -17 -22 -21 -12 -87 5 -39 10 -107 10 -152 0 -69 3
-83 16 -83 21 0 54 18 86 47 l26 25 -19 70 c-17 62 -73 198 -81 198 -2 0 -13
-8 -26 -18z"/>
<path d="M2390 2620 c-41 -17 -64 -32 -62 -41 13 -58 188 -359 209 -359 17 0
143 56 143 63 0 36 -190 357 -215 363 -5 1 -39 -10 -75 -26z"/>
<path d="M3050 2595 l-54 -55 39 -40 38 -39 49 27 c26 15 48 33 48 39 0 17
-51 123 -59 123 -4 0 -31 -25 -61 -55z"/>
<path d="M3308 2587 c-42 -29 -49 -39 -64 -94 -14 -53 -15 -69 -4 -107 12 -44
14 -45 65 -57 86 -19 89 -15 81 99 -8 126 -17 192 -25 191 -3 0 -27 -15 -53
-32z"/>
<path d="M1426 2595 c-6 -16 1 -116 11 -145 4 -13 6 -12 14 2 6 11 6 41 -1 85
-12 75 -15 81 -24 58z"/>
<path d="M2240 2524 c-73 -63 -210 -194 -210 -200 0 -2 18 -30 39 -62 21 -31
52 -83 67 -114 16 -32 33 -58 40 -58 13 0 251 81 307 105 l39 16 -18 27 c-69
104 -124 198 -154 264 -19 43 -37 77 -40 78 -3 0 -34 -25 -70 -56z"/>
<path d="M2115 2499 c-82 -39 -154 -75 -160 -80 -6 -6 4 -23 27 -46 l37 -37
68 65 c37 35 95 88 127 117 33 28 58 52 55 52 -2 -1 -71 -32 -154 -71z"/>
<path d="M3587 2514 c-7 -42 2 -152 13 -159 12 -7 20 97 11 143 -11 57 -17 60
-24 16z"/>
<path d="M1545 2524 c-57 -29 -67 -45 -60 -89 6 -42 71 -213 86 -230 6 -6 17
-2 30 11 19 20 20 26 10 117 -6 53 -11 121 -11 152 0 61 -6 65 -55 39z"/>
<path d="M3216 2527 c-13 -10 -16 -20 -11 -36 8 -27 13 -24 25 18 10 36 10 35
-14 18z"/>
<path d="M1397 2510 c-9 -33 -8 -150 2 -175 14 -34 23 61 14 135 -7 51 -10 59
-16 40z"/>
<path d="M2940 2487 c-25 -23 -81 -75 -125 -115 l-80 -73 75 34 c41 19 114 54
163 78 l87 44 -37 37 -38 37 -45 -42z"/>
<path d="M1770 2503 c1 -18 18 -35 24 -24 4 6 4 16 1 21 -7 12 -25 13 -25 3z"/>
<path d="M3128 2479 c-21 -11 -38 -23 -38 -28 0 -9 90 -75 95 -69 15 15 21 56
12 85 -12 38 -18 39 -69 12z"/>
<path d="M1805 2457 c-4 -20 -1 -46 7 -63 l13 -30 49 27 49 27 -49 36 c-27 19
-52 36 -56 36 -4 0 -10 -15 -13 -33z"/>
<path d="M3025 2423 c-16 -9 -95 -47 -175 -84 -80 -38 -145 -72 -145 -76 1 -4
13 -45 27 -90 15 -45 33 -112 40 -148 12 -66 13 -67 69 -106 32 -21 62 -39 66
-39 26 1 274 432 273 474 -1 12 -103 86 -117 86 -4 -1 -21 -8 -38 -17z"/>
<path d="M1447 2410 c-7 -29 55 -260 71 -260 3 0 13 7 23 16 16 14 15 20 -17
96 -19 44 -39 100 -45 124 -12 47 -24 56 -32 24z"/>
<path d="M3557 2416 c-10 -25 3 -157 14 -150 11 6 11 73 1 129 -6 32 -9 36
-15 21z"/>
<path d="M1776 2377 c-11 -40 -8 -49 13 -37 13 6 17 17 14 30 -8 30 -20 33
-27 7z"/>
<path d="M1873 2374 c-24 -14 -43 -27 -43 -29 0 -2 14 -34 30 -71 l31 -68 54
54 c30 30 55 59 55 65 0 13 -62 75 -75 75 -6 0 -29 -12 -52 -26z"/>
<path d="M3207 2387 c-3 -9 1 -21 9 -27 11 -10 14 -10 14 1 0 8 -4 20 -9 27
-7 11 -9 11 -14 -1z"/>
<path d="M3506 2361 c-10 -11 -37 -27 -60 -36 l-42 -16 -12 -92 c-7 -51 -15
-109 -18 -131 -7 -36 -6 -38 13 -28 10 6 49 40 86 77 l67 66 -1 72 c0 40 -4
80 -8 90 -6 17 -8 17 -25 -2z"/>
<path d="M3118 2192 c-43 -86 -105 -194 -138 -240 -48 -66 -56 -84 -44 -89 31
-12 313 95 342 130 23 27 -22 330 -51 349 -7 4 -16 8 -22 7 -5 0 -45 -71 -87
-157z"/>
<path d="M1431 2296 c-1 -33 6 -60 20 -83 12 -19 23 -33 25 -31 1 2 -8 39 -21
83 l-24 80 0 -49z"/>
<path d="M1782 2322 c-17 -13 -28 -38 -38 -83 -14 -66 -30 -229 -23 -229 7 0
154 181 154 189 0 11 -59 141 -65 141 -3 0 -16 -9 -28 -18z"/>
<path d="M3264 2299 c6 -21 26 -143 42 -257 3 -20 10 -32 17 -29 16 5 46 125
53 219 7 77 7 78 -17 78 -13 0 -42 3 -63 7 -38 6 -39 5 -32 -18z"/>
<path d="M1956 2252 l-58 -60 43 -72 c23 -40 48 -74 55 -77 14 -5 134 25 148
38 10 9 -63 152 -102 197 l-27 33 -59 -59z"/>
<path d="M1683 2260 l-41 -30 13 -57 c8 -32 20 -76 28 -98 l14 -40 8 60 c4 33
13 90 20 128 6 37 9 67 6 67 -3 -1 -25 -14 -48 -30z"/>
<path d="M2631 2219 c-28 -22 -51 -46 -51 -53 0 -15 178 -192 185 -184 11 11
-65 278 -79 278 -2 0 -26 -18 -55 -41z"/>
<path d="M2588 2223 c-21 -8 -38 -19 -38 -23 0 -20 18 -16 50 11 40 33 39 34
-12 12z"/>
<path d="M3568 2224 c-5 -4 -8 -30 -7 -58 l1 -51 9 45 c10 49 8 76 -3 64z"/>
<path d="M1601 2201 c-23 -18 -23 -18 -6 -47 36 -57 68 -104 71 -102 1 2 -8
40 -20 85 l-21 82 -24 -18z"/>
<path d="M1430 2189 c0 -13 6 -46 13 -73 l13 -49 17 26 c22 33 22 30 -13 79
-27 36 -30 38 -30 17z"/>
<path d="M2420 2159 c-58 -22 -138 -49 -178 -61 -58 -17 -72 -25 -66 -37 3 -9
14 -42 23 -74 l17 -57 145 102 c80 57 156 110 168 119 14 10 19 22 15 33 -8
20 0 22 -124 -25z"/>
<path d="M1832 2121 c-62 -74 -102 -126 -102 -133 0 -3 12 -3 28 -1 49 8 212
45 212 48 0 6 -82 145 -85 145 -3 0 -26 -27 -53 -59z"/>
<path d="M3480 2116 c-36 -34 -77 -71 -92 -81 -21 -15 -37 -46 -64 -123 -19
-57 -33 -106 -30 -109 14 -14 102 34 151 81 43 42 57 65 71 112 14 48 35 174
30 181 -1 1 -30 -26 -66 -61z"/>
<path d="M1541 2146 l-22 -24 45 -37 c24 -21 60 -47 78 -59 31 -19 32 -19 17
0 -9 10 -35 47 -56 82 l-39 62 -23 -24z"/>
<path d="M2495 2114 c-33 -25 -109 -80 -168 -121 l-108 -75 3 -46 c3 -41 6
-46 33 -54 40 -12 350 -14 449 -4 l78 8 -4 61 -4 62 -108 108 c-59 59 -109
107 -110 107 0 0 -28 -21 -61 -46z"/>
<path d="M1486 2085 c-34 -51 -13 -96 52 -110 17 -3 32 -5 32 -2 0 8 -60 137
-64 137 -2 0 -11 -11 -20 -25z"/>
<path d="M1575 2019 c25 -49 39 -56 78 -41 15 6 7 15 -42 49 l-61 42 25 -50z"/>
<path d="M2075 2047 c-38 -12 -71 -22 -73 -23 -4 -3 85 -129 101 -142 10 -8
24 -5 55 14 23 14 42 29 42 34 0 19 -41 140 -48 139 -4 -1 -38 -11 -77 -22z"/>
<path d="M1890 2000 c-41 -10 -93 -21 -115 -25 l-40 -8 55 -25 c78 -35 250
-92 278 -92 14 0 22 5 20 13 -6 22 -103 156 -113 156 -5 -1 -44 -9 -85 -19z"/>
<path d="M3317 1994 c-4 -4 -7 -19 -6 -33 l0 -26 10 24 c10 26 8 47 -4 35z"/>
<path d="M1500 1966 c0 -10 28 -63 68 -130 l35 -59 17 44 c16 43 16 45 -9 91
-18 32 -33 48 -46 48 -11 0 -30 3 -42 6 -13 4 -23 3 -23 0z"/>
<path d="M3215 1938 c-33 -18 -102 -46 -154 -63 l-93 -31 68 -23 c38 -13 102
-25 141 -28 l73 -6 20 44 c19 42 28 140 13 139 -5 -1 -35 -15 -68 -32z"/>
<path d="M1610 1953 c0 -5 9 -21 19 -36 14 -22 21 -26 27 -15 4 7 14 23 22 36
14 22 13 22 -27 22 -22 0 -41 -3 -41 -7z"/>
<path d="M1675 1907 l-19 -35 32 -49 32 -48 -6 60 c-4 33 -10 71 -13 84 -6 22
-7 22 -26 -12z"/>
<path d="M1800 1884 c30 -30 72 -69 92 -86 l38 -29 60 32 59 33 -87 27 c-49
14 -114 38 -146 52 -32 15 -61 27 -64 27 -4 0 18 -25 48 -56z"/>
<path d="M2790 1908 c0 -18 3 -44 7 -56 5 -21 10 -23 42 -17 67 12 68 27 6 68
l-55 37 0 -32z"/>
<path d="M1727 1860 c14 -120 38 -159 82 -131 12 8 9 18 -16 58 -17 26 -40 66
-52 88 l-21 40 7 -55z"/>
<path d="M1750 1904 c0 -11 88 -164 95 -164 11 0 55 24 53 29 -7 15 -148 143
-148 135z"/>
<path d="M2157 1882 c-43 -29 -37 -45 21 -57 32 -7 32 -6 32 34 0 22 -3 42 -7
44 -5 3 -25 -7 -46 -21z"/>
<path d="M1636 1828 c-11 -43 -6 -85 12 -101 16 -15 92 -25 92 -12 0 5 -91
135 -95 135 -1 0 -5 -10 -9 -22z"/>
<path d="M3411 1830 c-13 -11 -45 -28 -72 -37 -45 -16 -50 -21 -65 -68 -9 -27
-23 -63 -31 -78 -14 -28 -14 -28 9 -16 13 6 55 44 93 83 92 94 139 176 66 116z"/>
<path d="M2904 1830 c-11 -4 -41 -32 -66 -62 -35 -42 -47 -66 -57 -117 -7 -35
-23 -88 -37 -119 -13 -30 -23 -56 -22 -57 8 -6 183 16 248 30 71 16 78 20 135
80 33 35 77 90 97 123 l37 60 -62 7 c-34 4 -101 20 -148 36 -94 32 -94 32
-125 19z"/>
<path d="M2002 1795 l-64 -33 74 -52 c87 -62 145 -93 158 -85 5 3 16 29 25 58
l15 51 -42 42 c-59 58 -88 61 -166 19z"/>
<path d="M2814 1812 c-6 -4 -13 -20 -16 -35 l-6 -29 34 33 c19 18 34 34 34 36
0 6 -35 2 -46 -5z"/>
<path d="M2180 1785 c13 -14 25 -25 27 -25 2 0 3 11 3 25 0 20 -5 25 -27 25
l-26 0 23 -25z"/>
<path d="M2715 1797 c-33 -4 -155 -7 -272 -5 l-212 3 -6 -25 c-6 -21 2 -33 57
-83 34 -31 100 -83 145 -114 75 -51 85 -55 106 -44 34 18 127 90 191 147 53
48 57 54 54 90 l-3 39 -60 -8z"/>
<path d="M3213 1693 c-29 -43 -65 -94 -80 -112 l-28 -35 45 25 c48 26 82 76
106 155 7 24 12 44 11 44 -2 0 -26 -35 -54 -77z"/>
<path d="M1883 1740 c-13 -5 -23 -13 -23 -18 0 -10 115 -147 148 -176 15 -13
29 -16 49 -11 31 7 93 51 93 65 0 4 -28 24 -62 43 -35 20 -85 52 -113 71 -53
38 -58 40 -92 26z"/>
<path d="M1803 1713 c-13 -2 -23 -8 -23 -12 0 -4 38 -44 84 -89 58 -57 91 -82
108 -82 23 0 21 4 -25 53 -27 28 -63 71 -80 95 -17 23 -33 41 -36 41 -3 -1
-16 -4 -28 -6z"/>
<path d="M2214 1703 c-3 -10 -12 -35 -20 -55 l-14 -38 38 -16 c126 -53 272
-100 272 -86 0 4 -24 22 -53 39 -29 18 -90 64 -135 103 -69 59 -83 68 -88 53z"/>
<path d="M2725 1654 c-27 -24 -80 -65 -117 -91 -38 -26 -68 -50 -68 -54 0 -13
62 -29 111 -29 48 0 49 1 73 48 21 41 59 162 53 168 -1 1 -24 -18 -52 -42z"/>
<path d="M1728 1649 c24 -23 45 -39 48 -36 3 2 -3 21 -12 41 -15 30 -23 36
-48 36 l-31 -1 43 -40z"/>
<path d="M1780 1664 c0 -25 51 -88 81 -101 33 -14 32 -12 -21 44 -30 32 -56
60 -57 62 -2 2 -3 0 -3 -5z"/>
<path d="M2130 1559 c-19 -16 -45 -32 -57 -35 -13 -4 -23 -9 -23 -13 0 -11
143 -101 160 -101 59 1 249 66 233 80 -4 4 -35 15 -68 25 -33 9 -88 30 -124
46 -35 16 -69 29 -75 29 -6 -1 -27 -14 -46 -31z"/>
<path d="M3109 1531 c-31 -14 -139 -90 -139 -98 0 -10 93 36 130 65 25 20 47
37 49 39 2 2 2 5 0 7 -2 2 -20 -4 -40 -13z"/>
<path d="M1860 1536 c0 -12 107 -81 153 -98 29 -11 50 -18 47 -15 -50 50 -200
134 -200 113z"/>
<path d="M1985 1501 c13 -22 129 -91 152 -91 21 0 15 7 -36 41 -33 22 -63 45
-66 50 -4 5 -17 9 -31 9 -14 0 -23 -4 -19 -9z"/>
<path d="M2910 1474 c-36 -7 -98 -13 -137 -14 -70 0 -92 -10 -55 -25 9 -4 56
-9 103 -12 90 -6 98 -3 168 49 29 22 18 22 -79 2z"/>
<path d="M2410 1449 c-36 -15 -90 -33 -120 -40 l-55 -12 43 -18 c74 -32 164
-51 205 -45 56 9 177 74 177 95 0 11 -130 52 -160 50 -14 0 -54 -14 -90 -30z"/>
<path d="M2658 1453 c7 -3 16 -2 19 1 4 3 -2 6 -13 5 -11 0 -14 -3 -6 -6z"/>
<path d="M2654 1399 c-16 -16 -51 -41 -79 -55 l-50 -25 75 6 c85 7 167 26 225
51 l40 18 -58 8 c-32 4 -73 12 -92 17 -30 8 -36 6 -61 -20z"/>
<path d="M2170 1386 c0 -5 120 -46 134 -46 6 0 -13 11 -42 25 -48 22 -92 32
-92 21z"/>
<path d="M1903 993 c9 -2 25 -2 35 0 9 3 1 5 -18 5 -19 0 -27 -2 -17 -5z"/>
<path d="M1890 960 c0 -5 14 -10 31 -10 17 0 28 4 24 10 -3 6 -17 10 -31 10
-13 0 -24 -4 -24 -10z"/>
<path d="M2110 975 c0 -24 3 -26 33 -23 24 2 32 8 32 23 0 15 -8 21 -32 23
-30 3 -33 1 -33 -23z"/>
<path d="M2913 984 c-3 -8 -1 -20 5 -26 16 -16 47 -5 50 20 3 18 -1 22 -23 22
-14 0 -28 -7 -32 -16z"/>
<path d="M3090 990 c0 -5 11 -10 24 -10 14 0 28 5 31 10 4 6 -7 10 -24 10 -17
0 -31 -4 -31 -10z"/>
<path d="M3410 990 c0 -5 14 -10 30 -10 17 0 30 5 30 10 0 6 -13 10 -30 10
-16 0 -30 -4 -30 -10z"/>
</g>
</svg>
